<?xml version="1.0" encoding="UTF-8" standalone="no"?>
<!-- Created with Inkscape (http://www.inkscape.org/) -->

<svg
   width="152.49817mm"
   height="42.107525mm"
   viewBox="0 0 152.49817 42.107525"
   version="1.1"
   id="svg5"
   xml:space="preserve"
   sodipodi:docname="logo_dark.svg"
   inkscape:version="1.2.2 (b0a8486541, 2022-12-01)"
   xmlns:inkscape="http://www.inkscape.org/namespaces/inkscape"
   xmlns:sodipodi="http://sodipodi.sourceforge.net/DTD/sodipodi-0.dtd"
   xmlns="http://www.w3.org/2000/svg"
   xmlns:svg="http://www.w3.org/2000/svg"><sodipodi:namedview
     id="namedview7"
     pagecolor="#ffffff"
     bordercolor="#000000"
     borderopacity="0.25"
     inkscape:showpageshadow="2"
     inkscape:pageopacity="0.0"
     inkscape:pagecheckerboard="0"
     inkscape:deskcolor="#d1d1d1"
     inkscape:document-units="mm"
     showgrid="false"
     inkscape:zoom="1.829812"
     inkscape:cx="150.56191"
     inkscape:cy="-4.6452859"
     inkscape:window-width="2318"
     inkscape:window-height="1365"
     inkscape:window-x="4768"
     inkscape:window-y="177"
     inkscape:window-maximized="0"
     inkscape:current-layer="text9525" /><defs
     id="defs2" /><g
     inkscape:label="Layer 1"
     inkscape:groupmode="layer"
     id="layer1"
     transform="translate(-25.834871,-46.19669)"><g
       aria-label="SUCH "
       id="text9525"
       style="font-size:56.4444px;letter-spacing:0.637646px;fill:#39bfd7;stroke-width:2"><path
         d="m 58.290401,59.122465 c -0.112889,-4.28978 -1.580443,-7.450667 -4.402663,-9.595554 -2.878664,-2.144887 -6.54755,-3.217331 -11.063103,-3.217331 -4.684885,0 -8.410215,1.128888 -11.232435,3.273775 -2.82222,2.201332 -4.23333,5.136441 -4.23333,8.80533 0,1.12889 0.112888,2.14489 0.39511,3.10444 0.282222,0.95956 0.620889,1.74978 0.959555,2.42711 0.338667,0.67734 0.846666,1.29822 1.636888,1.91911 0.790222,0.56445 1.41111,1.07245 1.975554,1.41111 0.508,0.33867 1.354666,0.67734 2.483554,1.12889 1.128888,0.39511 1.975554,0.67733 2.483553,0.84667 0.564444,0.16933 1.467555,0.45155 2.82222,0.84666 0.169333,0 0.338667,0.0564 0.508,0.11289 0.225777,0.0564 0.338666,0.11289 0.451555,0.16933 0.112889,0 0.282222,0.0564 0.508,0.11289 3.951108,1.12889 6.491106,1.97556 7.732883,2.65289 1.241776,0.62089 1.80622,1.63689 1.80622,3.048 0,1.63689 -0.620888,2.93511 -1.975554,3.89466 -1.354665,0.95956 -3.160886,1.46756 -5.475107,1.46756 -5.870217,0 -8.918215,-2.54 -9.087548,-7.56355 h -8.748882 c 0.05644,4.51555 1.636887,8.07155 4.684885,10.5551 3.047998,2.48355 7.337772,3.78177 12.756435,3.78177 2.144887,0 4.176885,-0.28222 6.095995,-0.73377 1.91911,-0.45156 3.668886,-1.18534 5.249329,-2.20133 1.580443,-1.016 2.878665,-2.37067 3.781775,-4.064 0.959555,-1.69333 1.41111,-3.72533 1.41111,-5.98311 0,-3.16088 -0.959555,-5.58799 -2.878664,-7.28133 -1.91911,-1.69333 -4.910663,-3.10444 -8.861771,-4.23333 -0.903111,-0.28222 -1.91911,-0.56444 -3.160887,-0.84666 -1.185332,-0.33867 -2.088443,-0.56445 -2.765775,-0.73378 -0.677333,-0.22578 -1.41111,-0.45155 -2.201332,-0.67733 -0.790222,-0.22578 -1.41111,-0.45156 -1.862665,-0.67733 -0.395111,-0.22578 -0.790222,-0.45156 -1.241777,-0.79023 -0.395111,-0.33866 -0.677333,-0.67733 -0.846666,-1.016 -0.112889,-0.39511 -0.225778,-0.84666 -0.225778,-1.298221 0,-1.467555 0.620889,-2.596443 1.749777,-3.386664 1.128888,-0.790222 2.709331,-1.185333 4.741329,-1.185333 4.74133,0 7.281328,1.975554 7.619995,5.983108 z"
         style="-inkscape-font-specification:'Helvetica Neue Bold';fill:#3f9f68;fill-opacity:1"
         id="path2392" /><path
         d="m 98.45513,46.796413 h -8.805327 v 24.045315 c 0,3.27378 -0.620888,5.70088 -1.749776,7.28133 -1.128888,1.58044 -3.273775,2.37066 -6.434662,2.37066 -3.273775,0 -5.531551,-0.79022 -6.773328,-2.37066 -1.241777,-1.58045 -1.862665,-4.00755 -1.862665,-7.28133 V 46.796413 h -8.805327 v 24.045315 c 0,5.75733 1.354666,10.0471 4.176886,12.81288 2.82222,2.76577 7.168439,4.12044 13.151545,4.12044 5.870218,0 10.159992,-1.35467 12.925768,-4.064 2.765776,-2.70933 4.176886,-6.9991 4.176886,-12.75643 z"
         style="-inkscape-font-specification:'Helvetica Neue Bold';fill:#ea62a0;fill-opacity:1"
         id="path2394" /><path
         d="m 140.08742,71.766005 h -8.74888 c -0.79022,6.03955 -3.83822,9.0311 -9.20044,9.0311 -3.27377,0 -5.81377,-1.18533 -7.73288,-3.66888 -1.91911,-2.48356 -2.87866,-5.75733 -2.87866,-9.93422 0,-2.37066 0.33866,-4.51555 1.01599,-6.54755 0.67734,-1.97555 1.80623,-3.668885 3.49956,-5.02355 1.69333,-1.354666 3.72533,-2.031999 6.20888,-2.031999 2.37067,0 4.28978,0.564444 5.87022,1.806221 1.58044,1.241777 2.59644,2.935108 3.048,5.192888 h 8.63599 c -0.33867,-4.176889 -2.14489,-7.619997 -5.36222,-10.329328 -3.27378,-2.709332 -7.28133,-4.063997 -12.02266,-4.063997 -5.9831,0 -10.78088,1.975554 -14.39332,5.983106 -3.61244,3.951108 -5.36222,8.974659 -5.36222,15.014209 0,6.32178 1.74978,11.45822 5.30578,15.29644 3.556,3.83821 8.24088,5.81377 14.1111,5.81377 5.36222,0 9.59555,-1.524 12.69999,-4.45911 3.048,-2.99155 4.85422,-6.99911 5.30577,-12.0791 z"
         style="-inkscape-font-specification:'Helvetica Neue Bold'"
         id="path2396" /><path
         d="m 178.33304,47.586633 h -8.80533 V 62.713738 H 153.10239 V 47.586633 h -8.80533 v 40.188415 h 8.80533 v -17.32843 h 16.42532 v 17.32843 h 8.80533 z"
         style="-inkscape-font-specification:'Helvetica Neue Bold';fill:#5cc7a5;fill-opacity:1"
         id="path2398" /></g></g></svg>
