<?xml version="1.0" encoding="UTF-8" standalone="no"?>
<!-- Created with Inkscape (http://www.inkscape.org/) -->

<svg
   width="166.89827mm"
   height="166.89827mm"
   viewBox="0 0 166.89827 166.89827"
   version="1.1"
   id="svg5"
   xml:space="preserve"
   inkscape:version="1.2.2 (b0a8486541, 2022-12-01)"
   sodipodi:docname="logo.svg"
   xmlns:inkscape="http://www.inkscape.org/namespaces/inkscape"
   xmlns:sodipodi="http://sodipodi.sourceforge.net/DTD/sodipodi-0.dtd"
   xmlns="http://www.w3.org/2000/svg"
   xmlns:svg="http://www.w3.org/2000/svg"><sodipodi:namedview
     id="namedview7"
     pagecolor="#ffffff"
     bordercolor="#000000"
     borderopacity="0.25"
     inkscape:showpageshadow="2"
     inkscape:pageopacity="0.0"
     inkscape:pagecheckerboard="0"
     inkscape:deskcolor="#d1d1d1"
     inkscape:document-units="mm"
     showgrid="false"
     inkscape:zoom="1.2938725"
     inkscape:cx="227.6113"
     inkscape:cy="291.37338"
     inkscape:window-width="2124"
     inkscape:window-height="1236"
     inkscape:window-x="5342"
     inkscape:window-y="533"
     inkscape:window-maximized="0"
     inkscape:current-layer="layer1" /><defs
     id="defs2" /><g
     inkscape:label="Layer 1"
     inkscape:groupmode="layer"
     id="layer1"
     transform="translate(-23.473152,-57.772301)"><circle
       style="fill:#000000;fill-opacity:1;stroke-width:3.46156"
       id="path464-3"
       cx="106.92229"
       cy="141.22144"
       r="83.449135" /><circle
       style="fill:#fbeb0a;fill-opacity:1;stroke-width:3.166"
       id="path464"
       cx="106.92229"
       cy="141.22144"
       r="76.324005" /><path
       style="fill:#000000;stroke-width:0.0801176"
       d="m 139.63844,138.52915 c -0.18147,-0.56182 -0.41552,-1.25584 -0.52013,-1.54226 -0.10459,-0.28642 -0.38003,-1.11564 -0.61209,-1.8427 -0.23206,-0.72707 -0.52022,-1.59234 -0.64038,-1.92283 -0.12015,-0.33048 -0.45598,-1.32194 -0.74629,-2.20323 -0.29031,-0.88129 -0.56604,-1.71051 -0.61272,-1.8427 -0.0467,-0.1322 -0.82073,-2.45448 -1.7201,-5.16063 -0.89936,-2.70616 -1.68189,-4.9499 -1.73896,-4.9861 -0.12028,-0.0763 -0.43047,-0.0859 -0.67292,-0.0208 -0.15096,0.0405 -0.17372,0.12213 -0.21755,0.78005 -0.12999,1.95135 -1.16082,6.43648 -1.88269,8.19163 -0.0893,0.21708 -0.25836,0.64706 -0.37571,0.95551 -0.11736,0.30846 -0.27338,0.69969 -0.34671,0.86941 -0.24008,0.55563 -1.38521,2.81312 -1.4894,2.93618 -0.056,0.0661 -0.12246,0.17892 -0.14777,0.25072 -0.159,0.45108 -1.83035,2.57492 -2.66228,3.38305 -1.13574,1.10326 -2.95918,2.37677 -3.25967,2.27661 -0.11612,-0.0387 -0.65285,-1.03872 -1.75318,-3.2665 -0.4897,-0.99146 -1.05487,-2.12712 -1.25593,-2.5237 -0.4063,-0.80139 -1.44492,-3.07154 -1.99769,-4.36641 -2.12761,-4.98407 -3.71452,-9.83686 -4.38833,-13.4197 -0.5346,-2.84257 -0.56554,-3.03886 -0.68186,-4.32635 -0.0478,-0.52877 -0.12211,-1.33996 -0.16518,-1.80264 -0.14845,-1.59452 -0.0617,-4.95675 0.17048,-6.6097 0.12285,-0.87452 0.26944,-1.71745 0.43357,-2.493167 l 0.13763,-0.650457 0.5315,0.19086 c 2.704,0.970974 4.84499,3.105274 6.49821,6.477934 0.66632,1.35931 0.94742,2.05845 1.41735,3.52518 0.19766,0.6169 0.42534,1.31993 0.50595,1.56229 0.177,0.53213 0.79149,2.92591 0.89464,3.48511 0.0406,0.22033 0.10492,0.4727 0.14285,0.56083 0.0643,0.14936 0.21635,0.83704 0.26575,1.20176 0.0175,0.12947 0.0908,0.16424 0.38152,0.18111 0.19789,0.0115 0.40539,-0.009 0.46111,-0.0455 0.0557,-0.0365 0.29903,-0.85491 0.5407,-1.81868 0.49033,-1.95544 1.03233,-3.79169 1.32414,-4.48597 0.037,-0.0881 0.15611,-0.43064 0.26459,-0.76112 0.19688,-0.59976 0.41281,-1.16183 0.9695,-2.5237 0.36534,-0.89377 1.40085,-2.8867 1.82278,-3.50811 1.74156,-2.56498 3.63874,-3.550567 5.40155,-2.80612 1.07838,0.45541 2.00696,1.20238 2.93534,2.36127 0.77486,0.96725 1.84124,2.98552 2.55423,4.83425 0.085,0.22032 0.18459,0.47269 0.22137,0.56082 0.22986,0.55076 0.40878,1.06166 0.40878,1.16726 0,0.0674 0.0327,0.15688 0.0727,0.19875 0.04,0.0419 0.10928,0.20229 0.15403,0.35652 0.0447,0.15423 0.17754,0.53278 0.29512,0.84123 0.11756,0.30846 0.24473,0.65096 0.2826,0.76112 0.0379,0.11016 0.16333,0.45267 0.27881,0.76112 0.11548,0.30845 0.28283,0.76813 0.3719,1.0215 0.0891,0.25337 0.18732,0.46067 0.21837,0.46067 0.0506,0 0.31359,-0.86359 0.48793,-1.60235 0.37468,-1.5877 1.69482,-5.90643 2.40003,-7.85152 1.38751,-3.82699 2.96992,-6.633145 4.97716,-8.826183 1.10226,-1.204296 3.03615,-2.505246 4.30093,-2.893281 0.33264,-0.10205 0.58043,-0.222715 0.58086,-0.28285 8e-4,-0.05768 0.0339,-0.0844 0.0744,-0.05938 0.1854,0.114582 0.61715,2.537171 0.85742,4.811072 0.19122,1.809671 0.19073,6.048662 -8.8e-4,7.971682 -0.26849,2.69413 -0.6402,5.14294 -1.08841,7.17052 -0.23503,1.06322 -0.86495,3.63767 -1.00958,4.12606 -0.0587,0.19829 -0.17857,0.6129 -0.26632,0.92135 -0.28685,1.00822 -1.11822,3.66271 -1.48044,4.72693 -0.43753,1.28553 -2.0887,5.72616 -2.29384,6.16906 -0.0408,0.0881 -0.1431,0.3405 -0.22728,0.56082 -0.25022,0.6549 -0.73009,1.81666 -0.91005,2.20323 -0.96227,2.0671 -1.82445,3.68757 -2.26683,4.26052 -0.0881,0.11414 -0.21431,0.29004 -0.28041,0.39089 -0.39047,0.5958 -1.31347,1.59812 -2.06154,2.23871 -0.37181,0.31838 -1.31735,0.92149 -1.9844,1.26572 -0.35655,0.184 -1.26039,0.49686 -1.43541,0.49686 -0.0739,0 -0.22673,-0.35266 -0.44276,-1.0215 z"
       id="path2693" /><path
       style="fill:#000000;stroke-width:0.0801176"
       d="m 76.362086,140.72257 c -2.615616,-0.29816 -3.873305,-0.56623 -6.048877,-1.28929 -1.646445,-0.5472 -2.543126,-0.93632 -3.875176,-1.68165 -0.899666,-0.5034 -2.338885,-1.44147 -2.814642,-1.83456 -2.379519,-1.96608 -3.084078,-2.72615 -4.380384,-4.7255 -0.638284,-0.98446 -1.643316,-2.87073 -2.110215,-3.84864 -0.933137,-1.95445 -4.340287,-6.31504 0.485635,-5.92094 2.04413,0.16693 1.517052,0.12759 3.156698,0.22334 2.244706,-0.0788 3.992187,0.91358 6.253267,2.7338 1.213632,0.977 1.491992,1.20566 1.96288,1.61243 0.264388,0.22839 0.697023,0.57415 0.961411,0.76836 0.264388,0.1942 0.498732,0.3737 0.520764,0.39889 0.02203,0.0252 0.23835,0.17484 0.480706,0.33256 2.053261,1.33625 4.268491,2.08661 6.93017,2.34744 0.600304,0.0588 2.354396,-0.0782 3.204703,-0.25034 2.270835,-0.45973 4.026498,-1.58656 4.736595,-3.04009 0.301292,-0.61673 0.310518,-0.66076 0.301194,-1.43739 -0.02662,-2.21724 -1.204901,-3.7297 -3.891557,-4.99528 -1.376336,-0.64834 -2.597207,-1.01198 -5.392463,-1.60616 -2.036164,-0.43283 -2.312474,-0.49561 -3.566718,-0.81037 -3.326179,-0.83475 -5.554161,-1.98948 -7.451543,-3.86204 -2.158216,-2.12997 -3.375167,-4.85943 -3.500575,-7.85133 -0.08649,-2.06338 0.259899,-3.66162 1.211756,-5.59109 0.592777,-1.201594 1.290735,-2.168428 2.307877,-3.196952 1.920787,-1.942287 3.709745,-3.068399 6.312324,-3.973472 3.802167,-1.322242 7.953978,-1.514308 11.857402,-0.548531 1.563584,0.386858 2.545808,0.73631 3.897174,1.38652 2.770677,1.33311 3.399483,2.036069 4.761006,4.302927 0.608477,1.013074 1.516662,2.370778 2.397724,4.858228 0.303849,0.85784 1.477724,1.68453 -0.457264,1.73605 -0.75812,0.0202 -1.673422,0.22675 -2.900817,0.22183 -1.241008,-0.005 -1.715873,0.31585 -3.427921,-0.46752 -4.99551,-2.28577 -6.192535,-2.63035 -8.796545,-2.53224 -1.423156,0.0536 -2.503211,0.28896 -3.526225,0.76836 -2.144323,1.00486 -2.954941,2.26974 -2.241933,3.49828 0.355897,0.61323 1.283816,1.33174 2.320603,1.79692 0.701526,0.31475 2.288337,0.82035 3.487614,1.11125 4.024428,0.97617 4.726477,1.18165 6.6097,1.93461 0.973022,0.38904 2.743395,1.29681 3.705983,1.90027 1.749318,1.09668 3.690228,2.84034 4.729338,4.24871 0.410424,0.55627 1.298965,2.01733 1.298965,2.13594 0,0.0197 0.10468,0.2637 0.232623,0.54218 1.374716,2.99218 1.537792,6.69399 0.440541,10.00026 -0.257297,0.77529 -1.065418,2.5318 -1.267646,2.75531 -0.04758,0.0526 -0.122571,0.15367 -0.166635,0.22461 -0.705187,1.13525 -2.024293,2.61979 -2.964351,3.33612 -0.264388,0.20147 -0.498732,0.38724 -0.520764,0.41283 -0.119745,0.13907 -1.191263,0.84332 -1.927933,1.26711 -2.41247,1.38787 -4.840386,2.1433 -8.16449,2.54033 -0.901762,0.1077 -4.415947,0.15387 -5.169976,0.0679 z"
       id="path2691"
       sodipodi:nodetypes="ssssssscsssssssssssssssssssssssssssssssssssssssssss" /><path
       style="fill:#000000;stroke-width:0.0801176"
       d="m 88.405315,200.33212 c -1.471719,-0.16888 -2.890039,-0.47625 -4.439709,-0.96214 -1.436665,-0.45046 -1.658717,-0.53847 -3.692552,-1.4635 -1.016563,-0.46235 -3.021704,-1.5905 -3.605291,-2.02843 -0.110161,-0.0827 -0.542796,-0.38971 -0.96141,-0.68231 -0.418615,-0.29261 -0.779144,-0.55405 -0.801176,-0.581 -0.02203,-0.0269 -0.435159,-0.37199 -0.91806,-0.76678 -3.12595,-2.55556 -5.646948,-5.69263 -7.562446,-9.41055 -1.468577,-2.85045 -2.299609,-5.36078 -2.771612,-8.37228 -0.296415,-1.89122 -0.374782,-2.32473 -0.428354,-2.36962 -0.03121,-0.0262 -0.525441,-0.21964 -1.098282,-0.42997 -4.326343,-1.58859 -7.871428,-3.25237 -9.885532,-4.63951 -0.847505,-0.58369 -1.78606,-1.67091 -2.223405,-2.5756 -0.402353,-0.8323 -0.509702,-1.31169 -0.509276,-2.27426 7.21e-4,-1.64987 0.399918,-2.8517 1.25338,-3.77354 0.577407,-0.62367 1.199612,-0.93452 2.093105,-1.04571 1.294426,-0.16107 2.524438,0.13019 4.58485,1.0857 4.171785,1.93465 6.371597,2.84317 6.884199,2.84317 0.190785,0 0.230262,-0.0681 0.522601,-0.90133 0.355481,-1.0132 1.431488,-3.19604 1.964784,-3.98585 1.822206,-2.69867 3.951253,-4.59855 6.651931,-5.93594 1.680324,-0.83209 3.501494,-1.39619 5.64829,-1.7495 4.208915,-0.69271 8.392363,-0.17545 10.655637,1.31751 1.411308,0.93095 1.956534,2.07787 1.860442,3.91353 -0.07491,1.43097 -0.48363,2.47923 -1.354267,3.47335 -0.627353,0.71632 -1.033435,1.02542 -1.9512,1.48521 -1.309632,0.6561 -2.5792,1.02351 -4.64391,1.34391 -3.172549,0.49233 -5.835136,1.77439 -7.072924,3.4057 -0.655637,0.86408 -0.864939,1.2407 -0.734355,1.3214 0.203786,0.12595 5.40042,1.35431 7.407514,1.75096 4.546001,0.89841 9.984705,1.61913 15.141399,2.0065 2.909474,0.21855 5.580534,0.34608 5.654014,0.26993 0.034,-0.0353 0.24072,-0.46074 0.45926,-0.94545 0.21853,-0.48471 0.65398,-1.44808 0.96766,-2.14083 0.31368,-0.69274 0.57032,-1.27844 0.57032,-1.30155 0,-0.0231 0.40652,-0.86238 0.90338,-1.86505 1.85788,-3.74927 3.51968,-6.12846 6.06335,-8.68086 3.10251,-3.11314 6.30719,-4.98745 10.85944,-6.35131 3.52915,-1.05734 7.46731,-1.33623 11.29657,-0.8 2.83472,0.39696 5.67468,1.42622 8.07631,2.92702 2.55288,1.5953 4.99251,4.10341 6.77817,6.96843 0.50263,0.80644 1.59472,2.93972 2.05465,4.01354 0.1274,0.29744 0.27622,0.54079 0.33071,0.54079 0.0545,0 0.45207,-0.12835 0.8835,-0.28523 2.09931,-0.76337 2.90423,-1.02354 5.19088,-1.67782 1.8761,-0.53682 3.08856,-0.75971 4.17871,-0.76821 1.07482,-0.008 1.54234,0.1543 2.04623,0.71205 0.42306,0.46828 0.50562,0.78823 0.50035,1.9391 -0.01,2.15526 -0.74458,4.18297 -2.15232,5.94014 -1.90973,2.38378 -4.66309,4.20959 -8.18969,5.43079 l -1.2132,0.42011 -0.056,0.53391 c -0.3006,2.86623 -1.48189,6.71769 -2.90367,9.46703 -1.50049,2.90154 -2.99966,4.93028 -5.38757,7.2907 -2.05543,2.03177 -4.87445,3.98956 -7.51261,5.21746 -0.47403,0.22063 -0.92068,0.43249 -0.99256,0.4708 -0.39932,0.21287 -2.06901,0.85495 -3.20737,1.23341 -1.91633,0.63708 -2.38479,0.72789 -3.75234,0.72731 -1.14027,-8e-4 -1.17329,-0.005 -1.78973,-0.26994 -1.10787,-0.47534 -1.79642,-1.35794 -2.19398,-2.81234 -0.21058,-0.77036 -0.18904,-2.62151 0.0402,-3.45911 0.53361,-1.94939 1.69535,-3.63399 3.22691,-4.67927 0.32801,-0.22386 1.08309,-0.63482 1.67797,-0.91323 4.61373,-2.15938 6.9188,-3.70991 8.69758,-5.85055 0.68108,-0.81964 0.986,-1.28067 1.67084,-2.52631 0.48196,-0.8766 0.67664,-1.35691 0.58653,-1.44702 -0.02,-0.02 -0.48311,0.0714 -1.02911,0.20319 -2.13452,0.51514 -5.18079,1.0846 -9.00449,1.68328 -1.95791,0.30655 -4.76036,0.6357 -9.21352,1.08213 -1.9531,0.1958 -5.49322,0.44698 -7.15662,0.50778 l -1.54838,0.0566 -0.22483,0.56082 c -0.96857,2.41617 -2.77389,5.85283 -4.16658,7.93165 -1.75329,2.61706 -2.83544,3.91065 -4.60958,5.51023 -2.25585,2.03388 -4.43824,3.33407 -7.010316,4.1765 -2.363388,0.77407 -4.427496,1.09361 -6.970229,1.07905 -0.815197,-0.005 -1.914664,-0.0581 -2.44326,-0.11878 z m 3.004083,-12.69748 c 2.506435,-0.49476 4.428857,-1.6116 6.170774,-3.58493 0.478041,-0.54156 2.001219,-2.74533 2.001219,-2.89543 0,-0.0358 -0.297437,-0.0895 -0.66097,-0.11928 -5.179302,-0.42436 -11.18766,-1.15305 -14.280959,-1.73199 -4.256347,-0.79661 -5.336953,-1.02543 -7.759033,-1.64294 -0.786359,-0.20048 -1.450771,-0.34348 -1.47647,-0.31779 -0.143595,0.1436 0.99229,2.71193 1.705417,3.85609 1.124463,1.80413 2.786384,3.38634 4.725971,4.4993 1.733615,0.99477 4.440217,1.83615 6.496752,2.0196 0.874899,0.078 2.481942,0.0349 3.077299,-0.0826 z m 28.401712,-17.50011 c 4.39872,-0.29548 10.40014,-1.08245 14.6693,-1.92361 1.44118,-0.28396 6.61362,-1.46449 6.67189,-1.52275 0.0547,-0.0547 -0.46273,-0.99395 -0.85902,-1.55909 -0.52721,-0.75186 -1.5131,-1.68642 -2.40634,-2.28107 -1.11403,-0.74165 -2.10949,-1.15602 -3.69473,-1.53797 -0.71606,-0.17253 -1.09156,-0.20878 -2.5237,-0.24363 -1.458,-0.0355 -1.81074,-0.0189 -2.64388,0.12392 -1.67543,0.28729 -2.73637,0.63653 -4.12551,1.35804 -2.03882,1.05894 -3.55515,2.4302 -4.89173,4.42369 -0.52105,0.77714 -1.5276,2.68343 -1.64368,3.11291 -0.0496,0.18361 -0.0402,0.18763 0.33764,0.14345 0.21379,-0.025 0.71318,-0.0673 1.10976,-0.0939 z"
       id="path302" /></g></svg>
