<svg xmlns="http://www.w3.org/2000/svg" viewBox="0 0 200 200">
  <defs><filter id="sg-pulse-glow"><feGaussianBlur stdDeviation="3" result="b"/><feMerge><feMergeNode in="b"/><feMergeNode in="SourceGraphic"/></feMerge></filter></defs>
  <style>
    .pl0 { animation: sg-pl0 3s linear infinite; }
    @keyframes sg-pl0 { from { stroke-dashoffset: -0; } to { stroke-dashoffset: -380.5; } }
    .pl1 { animation: sg-pl1 3s linear infinite; }
    @keyframes sg-pl1 { from { stroke-dashoffset: -190.2; } to { stroke-dashoffset: -570.7; } }
    .pl2 { animation: sg-pl2 3s linear infinite; }
    @keyframes sg-pl2 { from { stroke-dashoffset: -63.54; } to { stroke-dashoffset: -444; } }
    .pt { offset-path: path("M 178,178 C 178,92 142,20 100,20 C 58,20 22,92 22,178"); offset-rotate: auto;
          animation: sg-pt 3s linear infinite; animation-delay: -0.2365s; }
    @keyframes sg-pt { from { offset-distance: 0%; } to { offset-distance: 100%; } }
    .nd { transform-box: fill-box; transform-origin: center; opacity: 0.2;
          animation: sg-node 3s linear infinite; }
    @keyframes sg-node {
      0%   { transform: scale(1); opacity: 0.2; }
      6%   { transform: scale(1.8); opacity: 1; }
      34%  { transform: scale(1); opacity: 0.2; }
      100% { transform: scale(1); opacity: 0.2; }
    }
    @media (prefers-reduced-motion: reduce) {
      .pl, .pt { display: none; }
      .nd { animation: none; }
    }
  </style>
  <rect width="200" height="200" rx="26" fill="#f7f8fa"/>
  <g class="field">
    <path d="M 178,178 C 178,92 142,20 100,20 C 58,20 22,92 22,178" fill="none" stroke="#1a5c38" stroke-width="2" stroke-linecap="round" stroke-linejoin="round" opacity="0.2"/>
    <path class="pl pl0" d="M 178,178 C 178,92 142,20 100,20 C 58,20 22,92 22,178" fill="none" stroke="#1a5c38" stroke-width="3" opacity="0.9" stroke-linecap="round" stroke-linejoin="round" filter="url(#sg-pulse-glow)" stroke-dasharray="30 350.5"/>
    <path class="pl pl1" d="M 178,178 C 178,92 142,20 100,20 C 58,20 22,92 22,178" fill="none" stroke="#2f8f5e" stroke-width="2" opacity="0.6" stroke-linecap="round" stroke-linejoin="round" filter="url(#sg-pulse-glow)" stroke-dasharray="20 360.5"/>
    <path class="pl pl2" d="M 178,178 C 178,92 142,20 100,20 C 58,20 22,92 22,178" fill="none" stroke="#0a0a14" stroke-width="1.5" opacity="0.4" stroke-linecap="round" stroke-linejoin="round" stroke-dasharray="8 372.5"/>
    <g class="nodes" filter="url(#sg-pulse-glow)">
      <g transform="translate(178,178)"><g class="nd" style="animation-delay:0s"><circle r="2" fill="#1a5c38"/></g></g>
      <g transform="translate(174.2,130.6)"><g class="nd" style="animation-delay:0.375s"><circle r="1.5" fill="#1a5c38"/></g></g>
      <g transform="translate(162.4,84.7)"><g class="nd" style="animation-delay:0.75s"><circle r="1.5" fill="#1a5c38"/></g></g>
      <g transform="translate(139.8,43)"><g class="nd" style="animation-delay:1.13s"><circle r="2" fill="#1a5c38"/></g></g>
      <g transform="translate(100,20)"><g class="nd" style="animation-delay:1.5s"><circle r="3.5" fill="#1a5c38"/></g></g>
      <g transform="translate(60.2,43)"><g class="nd" style="animation-delay:1.87s"><circle r="2" fill="#1a5c38"/></g></g>
      <g transform="translate(37.6,84.7)"><g class="nd" style="animation-delay:2.25s"><circle r="1.5" fill="#1a5c38"/></g></g>
      <g transform="translate(25.8,130.6)"><g class="nd" style="animation-delay:2.62s"><circle r="1.5" fill="#1a5c38"/></g></g>
      <g transform="translate(22,178)"><g class="nd" style="animation-delay:3s"><circle r="2" fill="#1a5c38"/></g></g>
    </g>
  </g>
  <g class="pt" filter="url(#sg-pulse-glow)"><path d="M 8,0 L 2.5,2.8 L -2.5,2.2 L -4.6,4.6 L -4.2,1.3 L -5.6,0 L -4.2,-1.3 L -4.6,-4.6 L -2.5,-2.2 L 2.5,-2.8 Z" fill="#0a0a14" opacity="0.9"/></g>
  <rect class="frame" x="14" y="14" width="172" height="172" rx="12" fill="none" stroke="#1a5c38" stroke-width="3.5" opacity="0.45"/>
  <path class="g g-s" d="M 78,36 H 36 V 58 H 78 V 82 H 36" fill="none" stroke="#1a5c38" stroke-width="14" stroke-linecap="round" stroke-linejoin="round" transform="translate(3,0)"/>
  <path class="g g-u" d="m 118,36 v 34 c 0,12.15 9.85,13 22,13 12.15,0 22,-3.1 22,-13 V 36" fill="none" stroke="#b83670" stroke-width="14" stroke-linecap="round" stroke-linejoin="round" transform="translate(-3,0)"/>
  <path class="g g-c" d="M 78,118 H 36 V 164 H 78" fill="none" stroke="#176a92" stroke-width="14" stroke-linecap="round" stroke-linejoin="round" transform="translate(3,0)"/>
  <path class="g g-h" d="M 118,118 V 164 M 162,118 V 164 M 118,141 H 162" fill="none" stroke="#12857e" stroke-width="14" stroke-linecap="round" stroke-linejoin="round" transform="translate(-3,0)"/>
</svg>
